<?xml version="1.0" encoding="UTF-8" standalone="no"?>
<!-- Created with Inkscape (http://www.inkscape.org/) -->

<svg
   xmlns:dc="http://purl.org/dc/elements/1.1/"
   xmlns:cc="http://creativecommons.org/ns#"
   xmlns:rdf="http://www.w3.org/1999/02/22-rdf-syntax-ns#"
   xmlns:svg="http://www.w3.org/2000/svg"
   xmlns="http://www.w3.org/2000/svg"
   xmlns:sodipodi="http://sodipodi.sourceforge.net/DTD/sodipodi-0.dtd"
   xmlns:inkscape="http://www.inkscape.org/namespaces/inkscape"
   width="48.000019"
   height="48"
   viewBox="0 0 48.000019 48"
   id="svg2"
   version="1.1"
   inkscape:version="0.91 r"
   sodipodi:docname="i_contract.svg">
  <defs
     id="defs4" />
  <sodipodi:namedview
     id="base"
     pagecolor="#ffffff"
     bordercolor="#aaaaaa"
     borderopacity="1"
     inkscape:pageopacity="0.0"
     inkscape:pageshadow="2"
     inkscape:zoom="2"
     inkscape:cx="8.3512508"
     inkscape:cy="99.890064"
     inkscape:document-units="px"
     inkscape:current-layer="layer1"
     showgrid="true"
     units="px"
     width="60px"
     inkscape:showpageshadow="false"
     showborder="true"
     showguides="true"
     inkscape:guide-bbox="true"
     guidecolor="#ff55d2"
     guideopacity="0.49803922"
     guidehicolor="#ff0000"
     guidehiopacity="0.35294118"
     inkscape:object-nodes="true"
     fit-margin-top="0"
     fit-margin-left="0"
     fit-margin-right="0"
     fit-margin-bottom="0"
     inkscape:snap-page="true"
     inkscape:snap-smooth-nodes="true"
     inkscape:snap-intersection-paths="false"
     inkscape:snap-nodes="true">
    <inkscape:grid
       type="xygrid"
       id="grid6493"
       color="#3f99ff"
       opacity="0.19607843"
       empcolor="#3f99ff"
       empopacity="0.35294118"
       originx="-45"
       originy="-102" />
  </sodipodi:namedview>
  <metadata
     id="metadata7">
    <rdf:RDF>
      <cc:Work
         rdf:about="">
        <dc:format>image/svg+xml</dc:format>
        <dc:type
           rdf:resource="http://purl.org/dc/dcmitype/StillImage" />
        <dc:title></dc:title>
      </cc:Work>
    </rdf:RDF>
  </metadata>
  <g
     inkscape:label="Layer 1"
     inkscape:groupmode="layer"
     id="layer1"
     transform="translate(-45,-902.3622)">
    <g
       id="g7432"
       transform="matrix(0.13459748,0,0,0.13459748,106.97841,907.41093)"
       style="fill:#373535;fill-opacity:1">
      <g
         id="g7386"
         style="fill:#373535;fill-opacity:1">
        <g
           id="g7388"
           style="fill:#373535;fill-opacity:1">
          <path
             id="path7390"
             d="m 327.061,159.368 c -0.466,-5.621 -0.989,-11.982 -2.01,-17.471 -0.709,-3.839 -2.268,-8.951 -7.539,-8.951 -0.528,0 -1.057,0.052 -1.579,0.106 -0.326,0.031 -0.652,0.075 -1.186,0.085 -0.011,0 -0.182,-0.166 -0.399,-0.797 -1.548,-4.433 -8.041,-9.947 -16.367,-16.691 -2.051,-1.655 -4.506,-3.648 -5.552,-4.676 0.384,-2.656 0.327,-5.918 -1.522,-8.166 -0.859,-1.049 -2.475,-2.302 -5.261,-2.302 -0.409,0 -0.844,0.025 -1.812,0.111 -2.01,0 -6.038,-0.826 -11.615,-1.979 -14.38,-2.951 -41.146,-8.45 -81.281,-9.315 C 132.5,88.165 86.579,130.336 84.686,132.112 l -1.354,1.258 c -2.4,1.16 -9.979,3.933 -33.145,8.487 -32.858,6.47 -39.126,16.938 -40.31,20.986 -2.623,1.958 -6.871,6.628 -7.544,12.122 -0.541,4.381 -1.766,6.173 -1.766,6.168 L 0,181.864 l 0,30.924 0.064,0.564 c 1.781,8.212 10.292,12.557 24.612,12.557 4.567,0 7.993,-0.466 7.86,-0.466 0.199,-0.011 1.965,-0.041 5.025,-0.104 -0.313,-0.865 -0.598,-1.74 -0.844,-2.636 -0.238,-0.864 -0.456,-1.734 -0.624,-2.625 -0.404,-2.098 -0.631,-4.257 -0.631,-6.473 0,-19.004 15.461,-34.466 34.465,-34.466 19.004,0 34.466,15.462 34.466,34.466 0,1.719 -0.168,3.386 -0.409,5.038 -0.132,0.896 -0.285,1.786 -0.487,2.656 -0.207,0.901 -0.424,1.792 -0.699,2.667 43.038,-0.922 97.802,-2.139 140.216,-3.205 -0.187,-0.87 -0.306,-1.751 -0.425,-2.642 -0.119,-0.88 -0.187,-1.76 -0.233,-2.65 -0.031,-0.622 -0.093,-1.232 -0.093,-1.864 0,-19.004 15.462,-34.466 34.465,-34.466 18.735,0 34,15.037 34.425,33.679 0,0.259 0.041,0.522 0.041,0.787 0,0.668 -0.062,1.32 -0.104,1.983 -0.052,0.942 -0.145,1.879 -0.269,2.801 8.098,-1.336 14.188,-5.603 17.714,-12.505 6.032,-11.801 2.957,-27.78 0.792,-31.173 -1.169,-1.836 -1.749,-9.013 -2.266,-15.343 z"
             inkscape:connector-curvature="0"
             style="fill:#373535;fill-opacity:1" />
          <path
             id="path7392"
             d="m 43.178,225.215 c 4.492,10.325 14.768,17.548 26.745,17.548 12.407,0 22.975,-7.762 27.19,-18.677 0.334,-0.87 0.632,-1.761 0.886,-2.672 0.243,-0.87 0.445,-1.761 0.611,-2.662 0.295,-1.672 0.481,-3.392 0.481,-5.151 0,-16.109 -13.054,-29.164 -29.163,-29.164 -16.109,0 -29.163,13.055 -29.163,29.164 0,2.185 0.259,4.312 0.717,6.363 0.194,0.891 0.427,1.766 0.709,2.62 0.288,0.902 0.617,1.771 0.987,2.631 z"
             inkscape:connector-curvature="0"
             style="fill:#373535;fill-opacity:1" />
          <path
             id="path7394"
             d="m 248.436,220.617 c 3.148,12.707 14.603,22.146 28.283,22.146 14.302,0 26.176,-10.309 28.661,-23.892 0.16,-0.88 0.284,-1.766 0.372,-2.672 0.078,-0.859 0.13,-1.719 0.13,-2.599 0,-0.021 0,-0.042 0,-0.068 -0.031,-16.072 -13.08,-29.096 -29.163,-29.096 -16.104,0 -29.163,13.055 -29.163,29.164 0,0.585 0.057,1.154 0.088,1.734 0.052,0.896 0.14,1.775 0.274,2.646 0.135,0.892 0.311,1.772 0.518,2.637 z"
             inkscape:connector-curvature="0"
             style="fill:#373535;fill-opacity:1" />
        </g>
      </g>
      <g
         id="g7396"
         style="fill:#373535;fill-opacity:1" />
      <g
         id="g7398"
         style="fill:#373535;fill-opacity:1" />
      <g
         id="g7400"
         style="fill:#373535;fill-opacity:1" />
      <g
         id="g7402"
         style="fill:#373535;fill-opacity:1" />
      <g
         id="g7404"
         style="fill:#373535;fill-opacity:1" />
      <g
         id="g7406"
         style="fill:#373535;fill-opacity:1" />
      <g
         id="g7408"
         style="fill:#373535;fill-opacity:1" />
      <g
         id="g7410"
         style="fill:#373535;fill-opacity:1" />
      <g
         id="g7412"
         style="fill:#373535;fill-opacity:1" />
      <g
         id="g7414"
         style="fill:#373535;fill-opacity:1" />
      <g
         id="g7416"
         style="fill:#373535;fill-opacity:1" />
      <g
         id="g7418"
         style="fill:#373535;fill-opacity:1" />
      <g
         id="g7420"
         style="fill:#373535;fill-opacity:1" />
      <g
         id="g7422"
         style="fill:#373535;fill-opacity:1" />
      <g
         id="g7424"
         style="fill:#373535;fill-opacity:1" />
    </g>
    <path
       id="path7635"
       style="fill:#333333;fill-rule:evenodd;stroke:none;stroke-width:1px;stroke-linecap:butt;stroke-linejoin:miter;stroke-opacity:1"
       d="m 85.131917,924.45959 c -1.554608,-2.31538 -5.071046,-2.51884 -5.071046,-2.51884 0,0 1.445529,1.45609 1.351167,2.63562 0,0 1.2418,-1.07067 3.719879,-0.11678 z m -3.863754,-14.17057 c 2.735696,6.87264 -5.010577,9.2997 -19.222852,6.96435 -14.212275,-2.33535 -14.691856,5.43385 -14.691856,5.43385 0,1.12335 0.264904,2.12817 0.663073,3.0026 0.398169,0.87444 0.929001,1.61953 1.461679,2.22484 1.065357,1.21062 2.136677,1.86173 2.158114,1.87454 0.218802,0.1307 0.352388,0.3665 0.352388,0.62137 0,0.58236 -9.99e-4,1.76029 0.173065,3.01718 0.08703,0.62845 0.219053,1.27714 0.414942,1.8808 0.19589,0.60365 0.456554,1.1619 0.804863,1.61181 0.169127,0.21845 0.198774,0.51303 0.07715,0.76107 -0.121711,0.24806 -0.372224,0.40661 -0.648477,0.40661 l -0.519198,0 c -0.226922,0 -0.42252,0.16953 -0.454559,0.39409 l -0.588007,4.11604 1.176015,1.76403 0.575497,0 -0.354473,-0.53379 c -0.207059,-0.31049 -0.323322,-0.66674 -0.346132,-1.02797 -0.02281,-0.36124 0.04783,-0.72746 0.214769,-1.06134 l 1.192696,-2.3833 c 0.178901,-0.3577 0.614221,-0.50201 0.971673,-0.3232 0.324493,0.1622 0.76013,0.29861 1.269846,0.35447 0.509717,0.0558 1.094356,0.0305 1.711896,-0.13136 0.61754,-0.16188 1.268275,-0.45981 1.916239,-0.95083 0.647963,-0.49101 1.292314,-1.17443 1.893302,-2.10599 0.216793,-0.33605 0.664977,-0.43364 1.000864,-0.21684 0.336061,0.21679 0.433734,0.66489 0.216853,1.00086 -0.161526,0.25032 -0.327061,0.48543 -0.494176,0.70686 0.700761,0.19392 1.829386,0.3734 3.042211,0.4066 1.212824,0.0332 2.509849,-0.0798 3.548898,-0.46707 -0.201078,-0.80422 -0.224306,-1.49135 -0.139703,-2.09347 0.08461,-0.60212 0.277037,-1.11923 0.510857,-1.58679 0.178814,-0.35768 0.611872,-0.5021 0.969587,-0.32319 0.357713,0.17889 0.504095,0.61396 0.325282,0.97166 -0.191627,0.38326 -0.343702,0.81569 -0.38575,1.33658 -0.04205,0.52088 0.02601,1.12967 0.271067,1.86619 0.245061,0.73653 0.668953,1.60127 1.338656,2.63144 0.669704,1.03017 1.58514,2.22631 2.817017,3.62814 0.166328,0.18929 0.419325,0.30234 0.675584,0.30234 l 0.863244,0 0,-4.68113 c 0,-0.26936 0.149302,-0.51728 0.387836,-0.64222 0.0029,-0.002 0.667151,-0.36369 1.918324,-1.47001 1.05411,-0.93205 2.733956,-2.58203 4.935511,-5.27122 -0.878221,-0.25063 -1.656182,-0.61147 -2.245688,-1.04049 -0.589508,-0.42903 -0.99056,-0.92625 -1.115547,-1.45126 -0.09264,-0.38914 0.148991,-0.7788 0.537964,-0.87157 0.38871,-0.0928 0.778867,0.14681 0.871587,0.53587 0.06081,0.25552 0.540743,0.69515 1.353252,1.07176 0.812508,0.37661 1.957593,0.69018 3.348725,0.69018 0.857398,0 1.420559,0.23408 1.830748,0.40452 0.4342,0.17992 0.651511,0.2696 1.163505,0.002 l -0.590093,-1.77027 c -0.02462,-0.0739 -0.03754,-0.15155 -0.03754,-0.22937 l 0,-1.43874 c -0.0743,-0.2371 -0.312329,-0.93571 -0.733967,-1.63474 -0.210819,-0.34952 -0.468217,-0.69805 -0.773585,-0.99045 -0.305367,-0.29239 -0.658359,-0.52826 -1.063418,-0.64847 -0.140746,-0.0419 -0.281936,-0.0782 -0.421197,-0.11052 0.151135,0.16589 0.299053,0.34295 0.437878,0.53171 0.236875,0.32209 0.167879,0.77432 -0.1543,1.0113 -0.322267,0.23686 -0.776325,0.16788 -1.013375,-0.1543 -0.507105,-0.6895 -1.157094,-1.18965 -1.699385,-1.52632 -0.02742,0.003 -0.05399,0.007 -0.08132,0.0107 l 0,1.85995 c 0,0.39997 -0.325653,0.72354 -0.725626,0.72354 -0.399975,0 -0.723543,-0.32366 -0.723543,-0.72354 l 0,-1.54926 c -1.608275,0.48763 -3.004421,1.3662 -4.095203,2.05386 -0.947415,0.5973 -1.574213,0.99253 -2.133092,0.99253 -0.532077,0 -1.004108,-0.37514 -1.720236,-0.94249 -0.68928,-0.54605 -1.610024,-1.27499 -2.842037,-1.86828 -0.616008,-0.29664 -1.310431,-0.56021 -2.091391,-0.74856 -0.780959,-0.18836 -1.649334,-0.30234 -2.614757,-0.30234 -3.329274,0 -5.834281,0.44371 -7.491889,0.73813 -0.756728,0.13428 -1.35451,0.24175 -1.803641,0.26481 -0.383864,0.0194 -0.69564,-0.0305 -0.93414,-0.15012 -0.238499,-0.11959 -0.403721,-0.30878 -0.494176,-0.56508 -0.152096,-0.43096 -0.04111,-0.94407 0.314856,-1.44708 0.485623,-0.68652 1.376782,-1.31676 2.506331,-1.77445 1.362669,-0.55224 2.981132,-0.83197 4.812489,-0.83197 1.290899,0 2.75905,0.21408 4.312058,0.44205 2.137339,0.3138 4.417248,0.64782 6.647408,0.50877 1.11508,-0.0695 2.217861,-0.25713 3.284086,-0.62554 1.066225,-0.3684 2.095817,-0.91666 3.065148,-1.70772 0.963568,-0.78641 1.665771,-1.63122 2.1039,-2.52927 0.438129,-0.89806 0.612185,-1.84937 0.519198,-2.8462 -0.08626,-0.9249 -0.38101,-1.69927 -0.696435,-2.27698 -0.315423,-0.57769 -0.651525,-0.9587 -0.817372,-1.09469 z m 0,0 c -0.38644,0.0486 -1.198224,0.28849 -2.120581,0.5609 -1.49141,0.44049 -3.62525,1.07084 -6.259573,1.59096 -2.634323,0.52011 -5.769132,0.92997 -9.264251,0.92997 -2.421407,0 -4.647781,0.20318 -6.624471,0.59843 -1.976694,0.39525 -3.7037,0.98256 -5.125261,1.75151 -0.749873,0.40559 -1.408131,0.85641 -1.972537,1.35117 3.265321,-2.23943 12.877789,-0.81946 21.618672,-1.62015 8.740883,-0.80069 9.748002,-5.16279 9.748002,-5.16279 z m 4.875045,17.3233 c 0.532426,0 0.965505,0.43307 0.965416,0.96541 0,0.53234 -0.43299,0.96542 -0.965416,0.96542 -0.532337,0 -0.965417,-0.43299 -0.965417,-0.96542 0,-0.53234 0.432992,-0.96541 0.965417,-0.96541 z m -5.58816,9.86268 0.902863,6.8872 -0.08341,0 c -0.208149,0 -0.401399,-0.11119 -0.504603,-0.29192 l -2.604332,-4.5581 c 0.566039,-0.44119 1.331846,-1.09368 2.289478,-2.03718 z m -18.762038,1.60347 c 0.577566,0.16179 1.332163,0.30435 2.17271,0.38992 l -1.376188,2.21233 c -0.01187,0.019 -0.02332,0.0382 -0.03336,0.0584 -0.16694,0.33388 -0.239144,0.7001 -0.216854,1.06134 0.02229,0.36124 0.139073,0.71749 0.346132,1.02797 l 0.356559,0.53379 -0.575498,0 -1.1781,-1.76403 0.504602,-3.5197 z"
       inkscape:connector-curvature="0" />
  </g>
</svg>
