<?xml version="1.0" encoding="UTF-8" standalone="no"?>
<!-- Created with Inkscape (http://www.inkscape.org/) -->

<svg
   xmlns:dc="http://purl.org/dc/elements/1.1/"
   xmlns:cc="http://creativecommons.org/ns#"
   xmlns:rdf="http://www.w3.org/1999/02/22-rdf-syntax-ns#"
   xmlns:svg="http://www.w3.org/2000/svg"
   xmlns="http://www.w3.org/2000/svg"
   xmlns:sodipodi="http://sodipodi.sourceforge.net/DTD/sodipodi-0.dtd"
   xmlns:inkscape="http://www.inkscape.org/namespaces/inkscape"
   width="48.000019"
   height="48"
   viewBox="0 0 48.000019 48"
   id="svg2"
   version="1.1"
   inkscape:version="0.91 r"
   sodipodi:docname="i_general.svg">
  <defs
     id="defs4" />
  <sodipodi:namedview
     id="base"
     pagecolor="#ffffff"
     bordercolor="#aaaaaa"
     borderopacity="1"
     inkscape:pageopacity="0.0"
     inkscape:pageshadow="2"
     inkscape:zoom="7.9999999"
     inkscape:cx="35.158432"
     inkscape:cy="14.234232"
     inkscape:document-units="px"
     inkscape:current-layer="layer1"
     showgrid="true"
     units="px"
     width="60px"
     inkscape:showpageshadow="false"
     showborder="true"
     showguides="true"
     inkscape:guide-bbox="true"
     guidecolor="#ff55d2"
     guideopacity="0.49803922"
     guidehicolor="#ff0000"
     guidehiopacity="0.35294118"
     inkscape:object-nodes="true"
     fit-margin-top="0"
     fit-margin-left="0"
     fit-margin-right="0"
     fit-margin-bottom="0"
     inkscape:snap-page="true"
     inkscape:snap-smooth-nodes="true"
     inkscape:snap-intersection-paths="false"
     inkscape:snap-nodes="true">
    <inkscape:grid
       type="xygrid"
       id="grid6493"
       color="#3f99ff"
       opacity="0.19607843"
       empcolor="#3f99ff"
       empopacity="0.35294118"
       originx="-45"
       originy="-102" />
  </sodipodi:namedview>
  <metadata
     id="metadata7">
    <rdf:RDF>
      <cc:Work
         rdf:about="">
        <dc:format>image/svg+xml</dc:format>
        <dc:type
           rdf:resource="http://purl.org/dc/dcmitype/StillImage" />
        <dc:title></dc:title>
      </cc:Work>
    </rdf:RDF>
  </metadata>
  <g
     inkscape:label="Layer 1"
     inkscape:groupmode="layer"
     id="layer1"
     transform="translate(-45,-902.3622)">
    <path
       style="fill:#373535;fill-opacity:1"
       d="m 13.316406,4.3828125 c -6.2505478,0 -11.3359372,5.0842544 -11.3359372,11.3339845 0,1.69391 0.3859456,3.296604 1.0566406,4.740234 C 4.8308084,24.314341 8.7288531,27 13.251953,27 L 21,27 c 1.355294,0 2.453125,-1.097015 2.453125,-2.453125 0,-1.3553 -1.097831,-2.455078 -2.453125,-2.455078 l -7.746094,0 c -1.630933,0 -3.115093,-0.621366 -4.2421872,-1.634766 -1.299676,-1.16799 -2.1230469,-2.857384 -2.1230469,-4.740234 0,-3.54405 2.8828674,-6.4277345 6.4277341,-6.4277345 2.552729,0 4.945765,1.6014515 5.955078,3.9824215 l 0.06836,0.144532 c 0.03844,0.0769 0.170153,0.336909 0.382812,0.724609 C 16.945817,15.347875 15.188439,17.21007 14,20 l 7.658203,0 c 1.931928,8.2e-4 3.949219,1.999608 3.949219,4.648438 0,2.35215 -2.091698,4.291672 -3.90625,4.351562 l -9.580078,0 C 12,30 11.993651,34.142255 12,36 c 0,1.19499 0.643289,2.719486 2.021484,3.478516 -0.0033,0.0499 -0.01563,0.09691 -0.01563,0.148437 0,1.26778 1.027963,2.294922 2.294922,2.294922 C 17.10316,41.921875 17.590222,41.625711 18,41 l 13,0 c 0.397509,0.68214 1.330869,0.919922 2.175781,0.919922 1.266958,0 2.292969,-1.026332 2.292969,-2.294922 0,-0.16032 -0.01612,-0.319393 -0.04883,-0.470703 C 36.476675,38.449247 37,37.02894 37,36 c 0,-1.73645 0.103574,-3.414728 -0.0625,-5.804688 1.584602,0.465551 2.725146,0.722647 4.0625,0.716797 L 41,26 C 39.126145,26.0752 37.878413,25.468961 36.199219,24.619141 34.956798,18.690851 31.892524,13.535719 24.888672,13.261719 24.253148,12.215599 23.858283,11.472058 23.751953,11.267578 21.962343,7.1444381 17.781433,4.3828125 13.316406,4.3828125 Z M 25,30 c 2.209136,7e-6 3.999993,1.790864 4,4 -7e-6,2.209136 -1.790864,3.999993 -4,4 -2.209136,-7e-6 -3.999993,-1.790864 -4,-4 7e-6,-2.209136 1.790864,-3.999993 4,-4 z"
       transform="translate(45,902.3622)"
       id="path7838"
       inkscape:connector-curvature="0"
       sodipodi:nodetypes="sscssssscsscccccsccccssccsscsccccccssssss" />
    <rect
       style="fill:#373535;fill-opacity:1;stroke:none;stroke-width:2;stroke-linecap:round;stroke-miterlimit:4;stroke-dasharray:none;stroke-dashoffset:17.39995575;stroke-opacity:1"
       id="rect7963"
       width="4"
       height="12.999999"
       x="87"
       y="924.36218"
       rx="1.0000174"
       ry="1.0000174" />
    <circle
       style="fill:#373535;fill-opacity:1;stroke:none;stroke-width:2;stroke-linecap:round;stroke-miterlimit:4;stroke-dasharray:none;stroke-dashoffset:17.39995575;stroke-opacity:1"
       id="path7989"
       cx="61"
       cy="941.36218"
       r="3.0000086" />
    <circle
       r="3.0000086"
       cy="941.36218"
       cx="78"
       id="circle7991"
       style="fill:#373535;fill-opacity:1;stroke:none;stroke-width:2;stroke-linecap:round;stroke-miterlimit:4;stroke-dasharray:none;stroke-dashoffset:17.39995575;stroke-opacity:1" />
  </g>
</svg>
