<?xml version="1.0" encoding="UTF-8" standalone="no"?>
<!-- Created with Inkscape (http://www.inkscape.org/) -->

<svg
   xmlns:dc="http://purl.org/dc/elements/1.1/"
   xmlns:cc="http://creativecommons.org/ns#"
   xmlns:rdf="http://www.w3.org/1999/02/22-rdf-syntax-ns#"
   xmlns:svg="http://www.w3.org/2000/svg"
   xmlns="http://www.w3.org/2000/svg"
   xmlns:sodipodi="http://sodipodi.sourceforge.net/DTD/sodipodi-0.dtd"
   xmlns:inkscape="http://www.inkscape.org/namespaces/inkscape"
   width="48.000019"
   height="48"
   viewBox="0 0 48.000019 48"
   id="svg2"
   version="1.1"
   inkscape:version="0.91 r"
   sodipodi:docname="i_wash.svg">
  <defs
     id="defs4" />
  <sodipodi:namedview
     id="base"
     pagecolor="#ffffff"
     bordercolor="#aaaaaa"
     borderopacity="1"
     inkscape:pageopacity="0.0"
     inkscape:pageshadow="2"
     inkscape:zoom="1.4142136"
     inkscape:cx="110.98683"
     inkscape:cy="44.99287"
     inkscape:document-units="px"
     inkscape:current-layer="layer1"
     showgrid="false"
     units="px"
     width="60px"
     inkscape:showpageshadow="false"
     showborder="true"
     showguides="true"
     inkscape:guide-bbox="true"
     guidecolor="#ff55d2"
     guideopacity="0.49803922"
     guidehicolor="#ff0000"
     guidehiopacity="0.35294118"
     inkscape:object-nodes="true"
     fit-margin-top="0"
     fit-margin-left="0"
     fit-margin-right="0"
     fit-margin-bottom="0"
     inkscape:snap-page="true"
     inkscape:snap-smooth-nodes="true"
     inkscape:snap-intersection-paths="false"
     inkscape:snap-nodes="true">
    <inkscape:grid
       type="xygrid"
       id="grid6493"
       color="#3f99ff"
       opacity="0.19607843"
       empcolor="#3f99ff"
       empopacity="0.35294118"
       originx="-45"
       originy="-102" />
  </sodipodi:namedview>
  <metadata
     id="metadata7">
    <rdf:RDF>
      <cc:Work
         rdf:about="">
        <dc:format>image/svg+xml</dc:format>
        <dc:type
           rdf:resource="http://purl.org/dc/dcmitype/StillImage" />
        <dc:title></dc:title>
      </cc:Work>
    </rdf:RDF>
  </metadata>
  <g
     inkscape:label="Layer 1"
     inkscape:groupmode="layer"
     id="layer1"
     transform="translate(-45,-902.3622)">
    <g
       id="g7432"
       transform="matrix(0.13459748,0,0,0.13459748,106.97841,907.41093)"
       style="fill:#373535;fill-opacity:1">
      <g
         id="g7386"
         style="fill:#373535;fill-opacity:1">
        <g
           id="g7388"
           style="fill:#373535;fill-opacity:1">
          <path
             id="path7390"
             d="m 327.061,159.368 c -0.466,-5.621 -0.989,-11.982 -2.01,-17.471 -0.709,-3.839 -2.268,-8.951 -7.539,-8.951 -0.528,0 -1.057,0.052 -1.579,0.106 -0.326,0.031 -0.652,0.075 -1.186,0.085 -0.011,0 -0.182,-0.166 -0.399,-0.797 -1.548,-4.433 -8.041,-9.947 -16.367,-16.691 -2.051,-1.655 -4.506,-3.648 -5.552,-4.676 0.384,-2.656 0.327,-5.918 -1.522,-8.166 -0.859,-1.049 -2.475,-2.302 -5.261,-2.302 -0.409,0 -0.844,0.025 -1.812,0.111 -2.01,0 -6.038,-0.826 -11.615,-1.979 -14.38,-2.951 -41.146,-8.45 -81.281,-9.315 C 132.5,88.165 86.579,130.336 84.686,132.112 l -1.354,1.258 c -2.4,1.16 -9.979,3.933 -33.145,8.487 -32.858,6.47 -39.126,16.938 -40.31,20.986 -2.623,1.958 -6.871,6.628 -7.544,12.122 -0.541,4.381 -1.766,6.173 -1.766,6.168 L 0,181.864 l 0,30.924 0.064,0.564 c 1.781,8.212 10.292,12.557 24.612,12.557 4.567,0 7.993,-0.466 7.86,-0.466 0.199,-0.011 1.965,-0.041 5.025,-0.104 -0.313,-0.865 -0.598,-1.74 -0.844,-2.636 -0.238,-0.864 -0.456,-1.734 -0.624,-2.625 -0.404,-2.098 -0.631,-4.257 -0.631,-6.473 0,-19.004 15.461,-34.466 34.465,-34.466 19.004,0 34.466,15.462 34.466,34.466 0,1.719 -0.168,3.386 -0.409,5.038 -0.132,0.896 -0.285,1.786 -0.487,2.656 -0.207,0.901 -0.424,1.792 -0.699,2.667 43.038,-0.922 97.802,-2.139 140.216,-3.205 -0.187,-0.87 -0.306,-1.751 -0.425,-2.642 -0.119,-0.88 -0.187,-1.76 -0.233,-2.65 -0.031,-0.622 -0.093,-1.232 -0.093,-1.864 0,-19.004 15.462,-34.466 34.465,-34.466 18.735,0 34,15.037 34.425,33.679 0,0.259 0.041,0.522 0.041,0.787 0,0.668 -0.062,1.32 -0.104,1.983 -0.052,0.942 -0.145,1.879 -0.269,2.801 8.098,-1.336 14.188,-5.603 17.714,-12.505 6.032,-11.801 2.957,-27.78 0.792,-31.173 -1.169,-1.836 -1.749,-9.013 -2.266,-15.343 z"
             inkscape:connector-curvature="0"
             style="fill:#373535;fill-opacity:1" />
          <path
             id="path7392"
             d="m 43.178,225.215 c 4.492,10.325 14.768,17.548 26.745,17.548 12.407,0 22.975,-7.762 27.19,-18.677 0.334,-0.87 0.632,-1.761 0.886,-2.672 0.243,-0.87 0.445,-1.761 0.611,-2.662 0.295,-1.672 0.481,-3.392 0.481,-5.151 0,-16.109 -13.054,-29.164 -29.163,-29.164 -16.109,0 -29.163,13.055 -29.163,29.164 0,2.185 0.259,4.312 0.717,6.363 0.194,0.891 0.427,1.766 0.709,2.62 0.288,0.902 0.617,1.771 0.987,2.631 z"
             inkscape:connector-curvature="0"
             style="fill:#373535;fill-opacity:1" />
          <path
             id="path7394"
             d="m 248.436,220.617 c 3.148,12.707 14.603,22.146 28.283,22.146 14.302,0 26.176,-10.309 28.661,-23.892 0.16,-0.88 0.284,-1.766 0.372,-2.672 0.078,-0.859 0.13,-1.719 0.13,-2.599 0,-0.021 0,-0.042 0,-0.068 -0.031,-16.072 -13.08,-29.096 -29.163,-29.096 -16.104,0 -29.163,13.055 -29.163,29.164 0,0.585 0.057,1.154 0.088,1.734 0.052,0.896 0.14,1.775 0.274,2.646 0.135,0.892 0.311,1.772 0.518,2.637 z"
             inkscape:connector-curvature="0"
             style="fill:#373535;fill-opacity:1" />
        </g>
      </g>
      <g
         id="g7396"
         style="fill:#373535;fill-opacity:1" />
      <g
         id="g7398"
         style="fill:#373535;fill-opacity:1" />
      <g
         id="g7400"
         style="fill:#373535;fill-opacity:1" />
      <g
         id="g7402"
         style="fill:#373535;fill-opacity:1" />
      <g
         id="g7404"
         style="fill:#373535;fill-opacity:1" />
      <g
         id="g7406"
         style="fill:#373535;fill-opacity:1" />
      <g
         id="g7408"
         style="fill:#373535;fill-opacity:1" />
      <g
         id="g7410"
         style="fill:#373535;fill-opacity:1" />
      <g
         id="g7412"
         style="fill:#373535;fill-opacity:1" />
      <g
         id="g7414"
         style="fill:#373535;fill-opacity:1" />
      <g
         id="g7416"
         style="fill:#373535;fill-opacity:1" />
      <g
         id="g7418"
         style="fill:#373535;fill-opacity:1" />
      <g
         id="g7420"
         style="fill:#373535;fill-opacity:1" />
      <g
         id="g7422"
         style="fill:#373535;fill-opacity:1" />
      <g
         id="g7424"
         style="fill:#373535;fill-opacity:1" />
    </g>
    <g
       id="g7497"
       transform="matrix(1.1265994,0,0,1.1265994,46.976341,906.35731)"
       style="fill:#373535;fill-opacity:1">
      <g
         id="g7455"
         style="fill:#373535;fill-opacity:1">
        <g
           id="g7457"
           style="fill:#373535;fill-opacity:1">
          <path
             id="path7459"
             d="m 38.96396,14.575372 c -0.191,-0.233 -0.476964,-0.345012 -0.775,-0.369 l -3.893373,-0.313373 c -0.938,-2.474 -2.16,-4.8980002 -3.549,-5.8130002 C 25.762182,5.3301023 13.335405,5.3301023 8.351,8.078 6.961,8.994 5.744,11.421 4.801,13.891 l -3.89237274,0.315372 c -0.30101357,0.02439 -0.586,0.136 -0.775,0.369 -0.19,0.232 -0.266,0.539 -0.204,0.834 L 0.584,17.822 c 0.096,0.465 0.506,0.797 0.979,0.797 l 1.126,0 c -1.087,1.254 -0.8857458,2.883641 -0.8927458,4.463641 -0.007,1.952 0.3762539,3.665359 1.7312539,4.913359 0.015,0.013 0.03,0.022 0.044,0.035 l 0,3.817 c 0,0.827 0.672,1.5 1.5,1.5 l 3.2133888,0 c 0.828,0 1.4785575,-0.673278 1.5,-1.5 l 0,-1.666343 19.5277931,0.002 0,1.666343 c 0,0.827 0.672,1.5 1.5,1.5 l 3.213389,0 c 0.826,0 1.5,-0.673 1.5,-1.5 l 0,-3.742 c 1.438,-1.317 1.766254,-3.216359 1.775254,-5.025359 0.006,-1.634 0.182254,-3.183641 -0.968746,-4.463641 l 1.201,0 c 0.475,0 0.885,-0.332 0.979,-0.798 l 0.656373,-2.413627 c 0.058,-0.293 -0.015,-0.598 -0.205,-0.832001 z M 9.998,10.583 c 4.225032,-1.7023899 14.876555,-1.7023899 19.097587,0.002 0.744,0.488 2.002984,2.980626 2.879984,5.396626 0,0 -6.213389,0.887627 -12.426778,0.887627 -6.213388,0 -12.426777,-0.887627 -12.426777,-0.887627 C 7.997016,13.566626 9.254,11.073 9.998,10.583 Z M 4.4591351,23.082641 c 0,-1.63 1.9215078,-1.775253 3.5505078,-1.775253 1.631,0 4.4381351,1.03288 4.4381351,2.66288 0,0.887627 -2.8071351,0.887627 -4.4381351,0.887627 -1.629,0 -3.5505078,-0.145254 -3.5505078,-1.775254 z m 26.6288089,1.775254 c -1.629,0 -4.438135,0 -4.438135,-0.887627 0,-1.63 2.809135,-2.66288 4.438135,-2.66288 1.631,0 3.550508,0.145253 3.550508,1.775253 0,1.63 -1.921508,1.775254 -3.550508,1.775254 z"
             inkscape:connector-curvature="0"
             sodipodi:nodetypes="csccccscccsccccssssccsssscccsccccccsccssssssssss"
             style="fill:#373535;fill-opacity:1" />
        </g>
      </g>
      <g
         id="g7461"
         style="fill:#373535;fill-opacity:1" />
      <g
         id="g7463"
         style="fill:#373535;fill-opacity:1" />
      <g
         id="g7465"
         style="fill:#373535;fill-opacity:1" />
      <g
         id="g7467"
         style="fill:#373535;fill-opacity:1" />
      <g
         id="g7469"
         style="fill:#373535;fill-opacity:1" />
      <g
         id="g7471"
         style="fill:#373535;fill-opacity:1" />
      <g
         id="g7473"
         style="fill:#373535;fill-opacity:1" />
      <g
         id="g7475"
         style="fill:#373535;fill-opacity:1" />
      <g
         id="g7477"
         style="fill:#373535;fill-opacity:1" />
      <g
         id="g7479"
         style="fill:#373535;fill-opacity:1" />
      <g
         id="g7481"
         style="fill:#373535;fill-opacity:1" />
      <g
         id="g7483"
         style="fill:#373535;fill-opacity:1" />
      <g
         id="g7485"
         style="fill:#373535;fill-opacity:1" />
      <g
         id="g7487"
         style="fill:#373535;fill-opacity:1" />
      <g
         id="g7489"
         style="fill:#373535;fill-opacity:1" />
    </g>
  </g>
</svg>
