<?xml version="1.0" encoding="UTF-8" standalone="no"?>
<!-- Created with Inkscape (http://www.inkscape.org/) -->

<svg
   xmlns:dc="http://purl.org/dc/elements/1.1/"
   xmlns:cc="http://creativecommons.org/ns#"
   xmlns:rdf="http://www.w3.org/1999/02/22-rdf-syntax-ns#"
   xmlns:svg="http://www.w3.org/2000/svg"
   xmlns="http://www.w3.org/2000/svg"
   xmlns:sodipodi="http://sodipodi.sourceforge.net/DTD/sodipodi-0.dtd"
   xmlns:inkscape="http://www.inkscape.org/namespaces/inkscape"
   width="48"
   height="48"
   viewBox="0 0 4.8000001 4.8000002"
   version="1.1"
   id="svg8"
   inkscape:version="0.92.4 5da689c313, 2019-01-14"
   sodipodi:docname="logo.svg">
  <defs
     id="defs2" />
  <sodipodi:namedview
     id="base"
     pagecolor="#ffffff"
     bordercolor="#666666"
     borderopacity="0.4"
     inkscape:pageopacity="0.0"
     inkscape:pageshadow="2"
     inkscape:zoom="5.6"
     inkscape:cx="-12.454377"
     inkscape:cy="32.368292"
     inkscape:document-units="px"
     inkscape:current-layer="layer1"
     showgrid="true"
     units="px"
     inkscape:showpageshadow="false"
     showguides="true"
     inkscape:guide-bbox="true"
     guidecolor="#005aff"
     guideopacity="0.49803922"
     guidehicolor="#ff1400"
     guidehiopacity="0.49803922"
     inkscape:window-width="1920"
     inkscape:window-height="1025"
     inkscape:window-x="0"
     inkscape:window-y="27"
     inkscape:window-maximized="1"
     inkscape:object-nodes="false"
     inkscape:snap-smooth-nodes="true">
    <inkscape:grid
       type="xygrid"
       id="grid3709"
       empspacing="4"
       spacingx="0.1"
       spacingy="0.1"
       color="#3f64ff"
       opacity="0.1254902"
       empcolor="#3f64ff"
       empopacity="0.25098039"
       dotted="false" />
  </sodipodi:namedview>
  <metadata
     id="metadata5">
    <rdf:RDF>
      <cc:Work
         rdf:about="">
        <dc:format>image/svg+xml</dc:format>
        <dc:type
           rdf:resource="http://purl.org/dc/dcmitype/StillImage" />
        <dc:title />
      </cc:Work>
    </rdf:RDF>
  </metadata>
  <g
     inkscape:label="Layer 1"
     inkscape:groupmode="layer"
     id="layer1"
     transform="translate(0,-107.45197)">
    <g
       id="g875"
       transform="matrix(0.99853737,0,0,0.99853737,-28.24164,30.600044)"
       style="stroke-width:1.00146472">
      <path
         style="color:#000000;font-style:normal;font-variant:normal;font-weight:normal;font-stretch:normal;font-size:medium;line-height:normal;font-family:sans-serif;font-variant-ligatures:normal;font-variant-position:normal;font-variant-caps:normal;font-variant-numeric:normal;font-variant-alternates:normal;font-feature-settings:normal;text-indent:0;text-align:start;text-decoration:none;text-decoration-line:none;text-decoration-style:solid;text-decoration-color:#000000;letter-spacing:normal;word-spacing:normal;text-transform:none;writing-mode:lr-tb;direction:ltr;text-orientation:mixed;dominant-baseline:auto;baseline-shift:baseline;text-anchor:start;white-space:normal;shape-padding:0;clip-rule:nonzero;display:inline;overflow:visible;visibility:visible;opacity:1;isolation:auto;mix-blend-mode:normal;color-interpolation:sRGB;color-interpolation-filters:linearRGB;solid-color:#000000;solid-opacity:1;vector-effect:none;fill:#4d4d4d;fill-opacity:1;fill-rule:nonzero;stroke:none;stroke-width:0.20029296;stroke-linecap:round;stroke-linejoin:round;stroke-miterlimit:4;stroke-dasharray:none;stroke-dashoffset:6.93333435;stroke-opacity:1;paint-order:normal;color-rendering:auto;image-rendering:auto;shape-rendering:auto;text-rendering:auto;enable-background:accumulate"
         d="m 29.541016,78.089844 c -0.248201,0.01584 -0.478772,0.146309 -0.607422,0.363281 -0.164351,0.277186 -0.24946,0.592381 -0.25,0.914063 5.53e-4,0.321644 0.08542,0.638446 0.25,0.916015 0.128662,0.216987 0.359277,0.347391 0.607422,0.363281 0.08253,0.0053 0.165542,-8.96e-4 0.25,-0.02148 0.294105,-0.07172 0.595592,-0.114382 0.896484,-0.115234 0.300908,8.67e-4 0.600234,0.04347 0.894531,0.115234 0.08462,0.02064 0.167776,0.02669 0.25,0.02148 0.248202,-0.01584 0.478774,-0.146307 0.607422,-0.363281 0.164575,-0.277566 0.249458,-0.594363 0.25,-0.916015 -5.54e-4,-0.321673 -0.08565,-0.636874 -0.25,-0.914063 -0.128662,-0.216989 -0.359278,-0.34739 -0.607422,-0.363281 -0.07824,-0.005 -0.161825,-0.002 -0.25,0.01953 -0.29508,0.07196 -0.594464,0.116338 -0.894531,0.117187 -0.300078,-8.66e-4 -0.601603,-0.04528 -0.896484,-0.117187 -0.08819,-0.0215 -0.17172,-0.02456 -0.25,-0.01953 z m 0.01172,0.199218 c 0.06299,-0.004 0.126299,-2.5e-4 0.191407,0.01563 0.307304,0.07493 0.624357,0.120172 0.943359,0.121093 0.318997,-9.03e-4 0.634103,-0.04615 0.941406,-0.121093 0.06501,-0.01586 0.128309,-0.01964 0.191406,-0.01563 0.186814,0.01196 0.354005,0.10834 0.447266,0.265626 0.145943,0.246138 0.222163,0.525966 0.222656,0.8125 -4.83e-4,0.286557 -0.0767,0.568283 -0.222656,0.814453 -0.09326,0.15729 -0.260448,0.253703 -0.447266,0.265625 -0.06303,0.004 -0.126351,-0.0017 -0.191406,-0.01758 -0.307291,-0.07493 -0.622404,-0.118222 -0.941406,-0.119141 -0.319004,9.04e-4 -0.636063,0.0442 -0.943359,0.119141 -0.06511,0.01587 -0.128413,0.02165 -0.191407,0.01758 -0.186813,-0.01196 -0.354004,-0.108342 -0.447265,-0.265625 -0.145959,-0.246169 -0.222164,-0.527894 -0.222657,-0.814453 4.82e-4,-0.286533 0.07671,-0.56636 0.222657,-0.8125 0.09326,-0.157291 0.26045,-0.253704 0.447265,-0.265626 z"
         id="path11"
         inkscape:connector-curvature="0" />
      <path
         transform="matrix(0.1,0,0,0.1,0,32.251967)"
         id="path864"
         d="m 295.78125,464.375 c -0.63,0.0402 -0.9975,0.29676 -1.25,0.72266 -1.09672,1.84962 -1.69222,3.91915 -1.69922,6.05468 v 0.0195 c 0.007,2.13571 0.60256,4.20507 1.69922,6.05468 0.2524,0.4257 0.6188,0.68266 1.25,0.72266 0.2099,0.014 0.45426,-0.0131 0.72266,-0.0781 3.338,-0.81399 6.8014,-1.29859 10.35156,-1.30859 a 4.0004,4.0004 0 0 1 0.0195,0 c 3.54991,0.0102 7.01345,0.49459 10.35156,1.30859 0.2663,0.065 0.50776,0.0921 0.72266,0.0781 0.63,-0.0402 0.9975,-0.29686 1.25,-0.72266 1.10002,-1.85519 1.69561,-3.93192 1.69922,-6.07422 -0.007,-2.13573 -0.60258,-4.20512 -1.69922,-6.05468 -0.2524,-0.4257 -0.6188,-0.68266 -1.25,-0.72266 -0.2099,-0.013 -0.45336,-0.007 -0.72266,0.0586 -3.338,0.81403 -6.80139,1.31813 -10.35156,1.32813 a 4.0004,4.0004 0 0 1 -0.0195,0 c -3.54987,-0.0103 -7.01343,-0.51403 -10.35156,-1.32813 -0.2674,-0.0656 -0.51166,-0.0726 -0.72266,-0.0586 z"
         style="opacity:1;fill:#f1c40f;fill-opacity:1;fill-rule:nonzero;stroke:none;stroke-width:28.0410099;stroke-linecap:round;stroke-linejoin:round;stroke-miterlimit:4;stroke-dasharray:none;stroke-dashoffset:6.93333435;stroke-opacity:1;paint-order:normal"
         inkscape:connector-curvature="0" />
    </g>
  </g>
</svg>
